<svg width="12" height="18" viewBox="0 0 12 18" fill="none" xmlns="http://www.w3.org/2000/svg">
<path d="M0.217309 4.72204C-0.0742744 5.01624 -0.0721557 5.49111 0.222041 5.78269C0.516238 6.07427 0.991107 6.07216 1.28269 5.77796L3.03 4.01499C3.73914 3.2995 4.22718 2.80869 4.64071 2.47659C4.77509 2.36867 4.8934 2.28446 5 2.21908L5 17.25C5 17.6642 5.33579 18 5.75 18C6.16422 18 6.5 17.6642 6.5 17.25L6.5 2.21908C6.6066 2.28446 6.72491 2.36867 6.85929 2.47659C7.27282 2.80869 7.76086 3.2995 8.47 4.01499L10.2173 5.77796C10.5089 6.07216 10.9838 6.07427 11.278 5.78269C11.5722 5.49111 11.5743 5.01624 11.2827 4.72204L9.5039 2.9273C8.83395 2.25133 8.28641 1.69886 7.79854 1.30706C7.29121 0.899628 6.77628 0.604694 6.15816 0.525909C6.02265 0.508636 5.88632 0.5 5.75 0.5C5.61368 0.5 5.47735 0.508636 5.34184 0.525909C4.72372 0.604694 4.20878 0.899628 3.70146 1.30706C3.21358 1.69886 2.66604 2.25134 1.99609 2.92732L0.217309 4.72204Z" fill="white" fill-opacity="0.8"/>
</svg>
