<svg width="24" height="25" viewBox="0 0 24 25" fill="none" xmlns="http://www.w3.org/2000/svg">
<path d="M17.2827 10.778C17.5743 10.4838 17.5722 10.0089 17.278 9.71731C16.9838 9.42573 16.5089 9.42784 16.2173 9.72204L14.47 11.485C13.7609 12.2005 13.2728 12.6913 12.8593 13.0234C12.4576 13.346 12.1996 13.4567 11.9685 13.4861C11.8234 13.5046 11.6766 13.5046 11.5315 13.4861C11.3004 13.4567 11.0424 13.346 10.6407 13.0234C10.2272 12.6913 9.73914 12.2005 9.03 11.485L7.28269 9.72204C6.99111 9.42784 6.51624 9.42573 6.22204 9.71731C5.92784 10.0089 5.92573 10.4838 6.21731 10.778L7.99609 12.5727C8.66604 13.2487 9.21359 13.8011 9.70146 14.1929C10.2088 14.6004 10.7237 14.8953 11.3418 14.9741C11.6129 15.0086 11.8871 15.0086 12.1582 14.9741C12.7763 14.8953 13.2912 14.6004 13.7985 14.1929C14.2864 13.8011 14.834 13.2487 15.5039 12.5727L17.2827 10.778Z" fill="white"/>
</svg>
