<svg width="48" height="28" viewBox="0 0 48 28" fill="none" xmlns="http://www.w3.org/2000/svg">
<path d="M27.0846 14.2993C27.0846 21.8229 21.0357 27.9319 13.5423 27.9319C6.0489 27.9319 0 21.8229 0 14.2993C0 6.77584 6.0489 0.666748 13.5423 0.666748C21.0357 0.666748 27.0846 6.77584 27.0846 14.2993ZM41.921 14.2993C41.921 21.3714 38.8815 27.1194 35.1498 27.1194C31.4182 27.1194 28.3787 21.3714 28.3787 14.2993C28.3787 7.22725 31.4182 1.47928 35.1498 1.47928C38.8815 1.47928 41.921 7.19715 41.921 14.2993ZM48 14.2993C48 20.6492 46.9467 25.7953 45.6226 25.7953C44.2984 25.7953 43.2451 20.6492 43.2451 14.2993C43.2451 7.9495 44.2984 2.80342 45.6226 2.80342C46.9467 2.80342 48 7.9495 48 14.2993Z" fill="white"/>
</svg>
