<svg width="12" height="18" viewBox="0 0 12 18" fill="none" xmlns="http://www.w3.org/2000/svg">
<path d="M11.7827 13.278C12.0743 12.9838 12.0722 12.5089 11.778 12.2173C11.4838 11.9257 11.0089 11.9278 10.7173 12.222L8.97 13.985C8.26086 14.7005 7.77282 15.1913 7.35929 15.5234C7.22491 15.6313 7.1066 15.7155 7 15.7809L7 0.75C7 0.335786 6.66421 0 6.25 0C5.83578 0 5.5 0.335786 5.5 0.75L5.5 15.7809C5.3934 15.7155 5.27509 15.6313 5.14071 15.5234C4.72718 15.1913 4.23914 14.7005 3.53 13.985L1.78269 12.222C1.49111 11.9278 1.01624 11.9257 0.722041 12.2173C0.427844 12.5089 0.425726 12.9838 0.717309 13.278L2.4961 15.0727C3.16605 15.7487 3.71359 16.3011 4.20146 16.6929C4.70879 17.1004 5.22372 17.3953 5.84184 17.4741C5.97735 17.4914 6.11368 17.5 6.25 17.5C6.38632 17.5 6.52265 17.4914 6.65816 17.4741C7.27628 17.3953 7.79122 17.1004 8.29854 16.6929C8.78642 16.3011 9.33396 15.7487 10.0039 15.0727L11.7827 13.278Z" fill="white" fill-opacity="0.64"/>
</svg>
