<svg width="44" height="35" viewBox="0 0 44 35" fill="none" xmlns="http://www.w3.org/2000/svg">
<path fill-rule="evenodd" clip-rule="evenodd" d="M38.9599 8.64521C38.9599 8.84862 38.9599 9.04356 38.9599 9.23003C38.9599 9.4165 38.9599 9.61144 38.9599 9.81486C38.9599 12.6966 38.4174 15.6122 37.3326 18.5618C36.2477 21.5113 34.6542 24.1812 32.5523 26.5713C30.4503 28.9615 27.8567 30.9024 24.7716 32.3941C21.6864 33.9197 18.1266 34.6825 14.0922 34.6825C11.6173 34.6825 9.2441 34.335 6.97261 33.64C4.70111 32.945 2.59916 31.9703 0.666687 30.7159C1.03962 30.7837 1.3956 30.8176 1.73462 30.8176C2.07365 30.8176 2.42963 30.8176 2.80256 30.8176C4.83674 30.8176 6.77766 30.4956 8.62537 29.8514C10.4731 29.2072 12.1428 28.2919 13.6345 27.1053C11.7359 27.0714 10.0408 26.4866 8.54909 25.3508C7.05735 24.2151 6.02333 22.7827 5.44698 21.0536C5.7182 21.0875 5.9979 21.1214 6.28607 21.1553C6.57425 21.1892 6.85394 21.2062 7.12517 21.2062C7.532 21.2062 7.92188 21.1723 8.29481 21.1045C8.66775 21.0367 9.04067 20.9689 9.41361 20.9011C7.41333 20.4942 5.74364 19.4941 4.40447 17.9007C3.0653 16.3072 2.39573 14.4426 2.39573 12.3067V12.205C3.00598 12.5101 3.64165 12.7644 4.30276 12.9678C4.96387 13.1712 5.65039 13.2899 6.36236 13.3238C5.17575 12.544 4.22648 11.51 3.51452 10.2217C2.80256 8.93337 2.44658 7.54337 2.44658 6.05164C2.44658 5.23797 2.55677 4.45822 2.77714 3.71235C2.9975 2.96649 3.29415 2.27148 3.66708 1.62733C4.75198 2.94955 5.95552 4.15309 7.27773 5.23797C8.59995 6.32287 10.0238 7.25519 11.5495 8.03496C13.0751 8.81472 14.7024 9.44192 16.4315 9.91656C18.1266 10.3912 19.8726 10.6794 21.6695 10.7811C21.6017 10.4421 21.5508 10.103 21.5169 9.764C21.483 9.42497 21.466 9.08594 21.466 8.74691C21.466 6.33981 22.3136 4.28023 24.0088 2.56813C25.7039 0.85603 27.772 0 30.213 0C31.4674 0 32.6455 0.254268 33.7473 0.762803C34.8492 1.27135 35.79 1.9494 36.5697 2.79697C37.5868 2.59355 38.5615 2.31386 39.4939 1.95788C40.4262 1.6019 41.2992 1.16964 42.1129 0.661101C41.8077 1.67818 41.3246 2.60203 40.6635 3.43265C40.0024 4.26328 39.2142 4.9498 38.2988 5.49224C39.1803 5.39054 40.0448 5.22102 40.8923 4.9837C41.7399 4.74639 42.5536 4.45822 43.3334 4.11919C42.7231 5.00065 42.0535 5.8228 41.3246 6.58561C40.5957 7.34843 39.8075 8.03496 38.9599 8.64521Z" fill="white"/>
</svg>
