<svg width="24" height="25" viewBox="0 0 24 25" fill="none" xmlns="http://www.w3.org/2000/svg">
<path d="M16.278 6.71731C15.9838 6.42573 15.5089 6.42784 15.2173 6.72204C14.9257 7.01624 14.9278 7.49111 15.222 7.78269L16.985 9.53C17.7005 10.2391 18.1913 10.7272 18.5234 11.1407C18.6313 11.2751 18.7155 11.3934 18.7809 11.5L3.75 11.5C3.33579 11.5 3 11.8358 3 12.25C3 12.6642 3.33579 13 3.75 13L18.7809 13C18.7155 13.1066 18.6313 13.2249 18.5234 13.3593C18.1913 13.7728 17.7005 14.2609 16.985 14.97L15.222 16.7173C14.9278 17.0089 14.9257 17.4838 15.2173 17.778C15.5089 18.0722 15.9838 18.0743 16.278 17.7827L18.0727 16.0039C18.7487 15.334 19.3011 14.7864 19.6929 14.2985C20.1004 13.7912 20.3953 13.2763 20.4741 12.6582C20.4914 12.5226 20.5 12.3863 20.5 12.25C20.5 12.1137 20.4914 11.9774 20.4741 11.8418C20.3953 11.2237 20.1004 10.7088 19.6929 10.2015C19.3011 9.71358 18.7487 9.16604 18.0727 8.49609L16.278 6.71731Z" fill="white"/>
</svg>
