<svg width="14" height="15" viewBox="0 0 14 15" fill="none" xmlns="http://www.w3.org/2000/svg">
<path fill-rule="evenodd" clip-rule="evenodd" d="M13.9633 4.13802C13.9511 3.84635 13.9177 3.55469 13.863 3.26302C13.8083 2.97135 13.7324 2.69184 13.6352 2.42448C13.4529 1.95052 13.1825 1.53429 12.824 1.17578C12.4655 0.817269 12.0553 0.546873 11.5935 0.364579C11.314 0.267358 11.0314 0.191403 10.7458 0.136715C10.4603 0.0820307 10.1716 0.054684 9.87997 0.054684C9.50323 0.03038 9.16599 0.01519 8.86825 0.009114C8.5705 0.003038 7.94768 0 6.99976 0C6.05183 0 5.42597 0.003038 5.12215 0.009114C4.81833 0.01519 4.48413 0.03038 4.11955 0.054684C3.82788 0.054684 3.53925 0.0820307 3.25366 0.136715C2.96807 0.191403 2.68552 0.267358 2.40601 0.364579C1.9442 0.546873 1.53405 0.817269 1.17554 1.17578C0.817028 1.53429 0.546632 1.95052 0.364339 2.42448C0.267116 2.69184 0.191162 2.96831 0.136475 3.2539C0.0817868 3.53949 0.048367 3.82812 0.0362142 4.11979C0.0240614 4.49653 0.0149469 4.83376 0.00887044 5.13151C0.00279402 5.42925 -0.000244141 6.05207 -0.000244141 7C-0.000244141 7.94792 -0.000244141 8.57378 -0.000244141 8.8776C-0.000244141 9.18142 0.0119085 9.5217 0.0362142 9.89843C0.048367 10.1901 0.0817868 10.4757 0.136475 10.7552C0.191162 11.0347 0.267116 11.3142 0.364339 11.5937C0.546632 12.0677 0.817028 12.4809 1.17554 12.8333C1.53405 13.1858 1.95027 13.4531 2.42423 13.6354C2.6916 13.7448 2.96807 13.8299 3.25366 13.8906C3.53925 13.9514 3.82788 13.9818 4.11955 13.9818C4.49629 14.0061 4.83352 14.0213 5.13126 14.0273C5.42901 14.0334 6.05183 14.0365 6.99976 14.0365C7.94768 14.0365 8.57354 14.0334 8.87736 14.0273C9.18118 14.0213 9.51538 14.0061 9.87997 13.9818C10.1716 13.9818 10.4603 13.9544 10.7458 13.8997C11.0314 13.845 11.314 13.7691 11.5935 13.6719C12.0553 13.4896 12.4655 13.2192 12.824 12.8607C13.1825 12.5022 13.4529 12.0859 13.6352 11.612C13.7324 11.3446 13.8083 11.0681 13.863 10.7825C13.9177 10.497 13.9511 10.2083 13.9633 9.91666C13.9755 9.53993 13.9846 9.20269 13.9906 8.90495C13.9967 8.6072 13.9998 7.98438 13.9998 7.03646C13.9998 6.07638 13.9998 5.44748 13.9998 5.14974C13.9998 4.85199 13.9876 4.51476 13.9633 4.13802ZM6.99994 10.5911C6.50167 10.5911 6.03379 10.5 5.59629 10.3177C5.15879 10.1233 4.77598 9.86502 4.44786 9.54297C4.11973 9.22092 3.86452 8.84114 3.68223 8.40364C3.48779 7.96614 3.39056 7.49826 3.39056 7C3.39056 6.50173 3.48779 6.03385 3.68223 5.59635C3.86452 5.15885 4.11973 4.77908 4.44786 4.45703C4.77598 4.13498 5.15879 3.87673 5.59629 3.68229C6.03379 3.49999 6.50167 3.40885 6.99994 3.40885C7.4982 3.40885 7.96001 3.49999 8.38536 3.68229C8.82286 3.87673 9.20567 4.13498 9.53379 4.45703C9.86192 4.77908 10.1171 5.15885 10.2994 5.59635C10.4939 6.03385 10.5911 6.50173 10.5911 7C10.5911 7.49826 10.4939 7.96614 10.2994 8.40364C10.1171 8.84114 9.86192 9.22092 9.53379 9.54297C9.20567 9.86502 8.82286 10.1233 8.38536 10.3177C7.96001 10.5 7.4982 10.5911 6.99994 10.5911ZM10.7365 4.11987C10.5056 4.11987 10.3081 4.03784 10.1441 3.87378C9.98002 3.70971 9.89799 3.51223 9.89799 3.28133C9.89799 3.03827 9.98002 2.83775 10.1441 2.67976C10.3081 2.52178 10.5056 2.44279 10.7365 2.44279C10.9674 2.44279 11.1649 2.52178 11.329 2.67976C11.493 2.83775 11.5751 3.03827 11.5751 3.28133C11.5751 3.51223 11.493 3.70971 11.329 3.87378C11.1649 4.03784 10.9674 4.11987 10.7365 4.11987ZM9.33282 7.00004C9.33282 7.64414 9.10495 8.19405 8.64922 8.64978C8.19349 9.10551 7.64359 9.33338 6.99948 9.33338C6.35538 9.33338 5.80547 9.10551 5.34974 8.64978C4.89401 8.19405 4.66615 7.64414 4.66615 7.00004C4.66615 6.35594 4.89401 5.80604 5.34974 5.3503C5.80547 4.89457 6.35538 4.66671 6.99948 4.66671C7.64359 4.66671 8.19349 4.89457 8.64922 5.3503C9.10495 5.80604 9.33282 6.35594 9.33282 7.00004Z" fill="white"/>
</svg>
