<svg width="23" height="23" viewBox="0 0 23 23" fill="none" xmlns="http://www.w3.org/2000/svg">
<path d="M3.06107 21.2298L3.50191 20.623H3.50191L3.06107 21.2298ZM1.95491 20.1237L1.34815 20.5645L1.95491 20.1237ZM18.0451 20.1237L17.4383 19.6828L18.0451 20.1237ZM16.9389 21.2298L16.4981 20.623H16.4981L16.9389 21.2298ZM3.06107 5.13964L2.62023 4.53288H2.62023L3.06107 5.13964ZM1.95491 6.2458L1.34815 5.80496H1.34815L1.95491 6.2458ZM11.991 4.94188C12.4052 4.94684 12.745 4.61511 12.7499 4.20092C12.7549 3.78674 12.4232 3.44695 12.009 3.44199L11.991 4.94188ZM19.7427 11.1757C19.7378 10.7616 19.398 10.4298 18.9838 10.4348C18.5696 10.4397 18.2379 10.7795 18.2428 11.1937L19.7427 11.1757ZM9.00543 12.5036C8.71253 12.7965 8.71253 13.2714 9.00543 13.5643C9.29832 13.8572 9.77319 13.8572 10.0661 13.5643L9.00543 12.5036ZM14.4822 0.263165C14.0679 0.265014 13.7337 0.602295 13.7355 1.0165C13.7374 1.43071 14.0746 1.765 14.4888 1.76315L14.4822 0.263165ZM16.9676 1.00208L16.971 1.75208L16.9676 1.00208ZM21.5676 5.60208L20.8177 5.59874L21.5676 5.60208ZM20.8066 8.08088C20.8047 8.49509 21.139 8.83237 21.5532 8.83422C21.9674 8.83607 22.3047 8.50178 22.3066 8.08757L20.8066 8.08088ZM20.6138 1.51277L21.0729 0.919641L21.0729 0.91964L20.6138 1.51277ZM21.057 1.95589L21.6501 1.49687V1.49687L21.057 1.95589ZM20.8273 1.74245L20.3673 1.15009L20.3302 1.1789L20.297 1.21212L20.8273 1.74245ZM10 21.4347C8.10843 21.4347 6.74999 21.4337 5.69804 21.3197C4.66013 21.2073 4.00992 20.9921 3.50191 20.623L2.62024 21.8366C3.42656 22.4224 4.37094 22.6847 5.53648 22.811C6.68798 22.9358 8.14184 22.9347 10 22.9347V21.4347ZM0.25 13.1847C0.25 15.0429 0.248971 16.4967 0.373728 17.6483C0.500006 18.8138 0.762324 19.7582 1.34815 20.5645L2.56168 19.6828C2.19259 19.1748 1.97745 18.5246 1.865 17.4867C1.75103 16.4347 1.75 15.0763 1.75 13.1847H0.25ZM3.50191 20.623C3.14111 20.3609 2.82382 20.0436 2.56168 19.6828L1.34815 20.5645C1.70281 21.0526 2.13209 21.4819 2.62024 21.8366L3.50191 20.623ZM18.25 13.1847C18.25 15.0763 18.249 16.4347 18.135 17.4867C18.0225 18.5246 17.8074 19.1748 17.4383 19.6828L18.6518 20.5645C19.2377 19.7582 19.5 18.8138 19.6263 17.6483C19.751 16.4967 19.75 15.0429 19.75 13.1847H18.25ZM10 22.9347C11.8582 22.9347 13.312 22.9358 14.4635 22.811C15.6291 22.6847 16.5734 22.4224 17.3798 21.8366L16.4981 20.623C15.9901 20.9921 15.3399 21.2073 14.302 21.3197C13.25 21.4337 11.8916 21.4347 10 21.4347V22.9347ZM17.4383 19.6828C17.1762 20.0436 16.8589 20.3609 16.4981 20.623L17.3798 21.8366C17.8679 21.4819 18.2972 21.0526 18.6518 20.5645L17.4383 19.6828ZM10 3.43473C8.14184 3.43473 6.68798 3.4337 5.53648 3.55845C4.37094 3.68473 3.42656 3.94705 2.62023 4.53288L3.50191 5.7464C4.00992 5.37732 4.66013 5.16218 5.69804 5.04973C6.74999 4.93576 8.10843 4.93473 10 4.93473V3.43473ZM1.75 13.1847C1.75 11.2932 1.75103 9.93472 1.865 8.88277C1.97745 7.84486 2.19259 7.19464 2.56168 6.68664L1.34815 5.80496C0.762324 6.61129 0.500006 7.55567 0.373728 8.7212C0.248971 9.8727 0.25 11.3266 0.25 13.1847H1.75ZM2.62023 4.53288C2.13209 4.88754 1.70281 5.31682 1.34815 5.80496L2.56168 6.68664C2.82382 6.32584 3.14111 6.00854 3.50191 5.7464L2.62023 4.53288ZM10 4.93473C10.7367 4.93473 11.3952 4.93474 11.991 4.94188L12.009 3.44199C11.4025 3.43472 10.7343 3.43473 10 3.43473V4.93473ZM19.75 13.1847C19.75 12.4504 19.75 11.7823 19.7427 11.1757L18.2428 11.1937C18.25 11.7895 18.25 12.448 18.25 13.1847H19.75ZM14.4888 1.76315L16.971 1.75208L16.9643 0.252091L14.4822 0.263165L14.4888 1.76315ZM20.8177 5.59874L20.8066 8.08088L22.3066 8.08757L22.3176 5.60543L20.8177 5.59874ZM16.971 1.75208C17.9784 1.74758 18.6705 1.74563 19.1977 1.80321C19.7099 1.85914 19.9706 1.96333 20.1548 2.1059L21.0729 0.91964C20.5801 0.538279 20.0074 0.38271 19.3606 0.312072C18.7288 0.243083 17.9364 0.247754 16.9643 0.252091L16.971 1.75208ZM22.3176 5.60543C22.322 4.63334 22.3266 3.84089 22.2577 3.20915C22.187 2.56232 22.0314 1.98965 21.6501 1.49687L20.4638 2.41491C20.6064 2.59913 20.7106 2.85983 20.7665 3.37199C20.8241 3.89923 20.8221 4.59137 20.8177 5.59874L22.3176 5.60543ZM10.0661 13.5643L21.3576 2.27278L20.297 1.21212L9.00543 12.5036L10.0661 13.5643ZM20.1548 2.1059C20.2134 2.15122 20.2689 2.20021 20.3211 2.25254L21.3834 1.19357C21.286 1.09581 21.1822 1.0043 21.0729 0.919641L20.1548 2.1059ZM20.3211 2.25254C20.3719 2.30357 20.4196 2.35779 20.4638 2.41491L21.6501 1.49687C21.5675 1.3902 21.4785 1.28891 21.3834 1.19357L20.3211 2.25254ZM21.2873 2.3348L21.3123 2.31541L20.3922 1.1307L20.3673 1.15009L21.2873 2.3348Z" fill="#FAFAFA"/>
</svg>
