<svg width="41" height="34" viewBox="0 0 41 34" fill="none" xmlns="http://www.w3.org/2000/svg">
<path fill-rule="evenodd" clip-rule="evenodd" d="M38.2377 0.238315L2.53292 13.9637C1.33804 14.4668 0.717021 15.0092 0.669855 15.5909C0.622688 16.1726 1.10221 16.6207 2.10842 16.9351L11.2586 19.7651L32.4362 6.41708C32.9393 6.10263 33.356 6.00044 33.6861 6.1105C34.0163 6.22055 33.9927 6.44852 33.6154 6.79441L16.4469 22.3121L15.8338 31.7453C16.274 31.7453 16.6277 31.6509 16.895 31.4623C17.1623 31.2736 17.4217 31.0535 17.6732 30.802L22.1069 26.4627L31.3514 33.3018C32.2319 33.7734 32.9629 33.8835 33.5446 33.6319C34.1264 33.3804 34.5273 32.7515 34.7474 31.7453L40.7846 3.11544C41.0991 1.85768 40.9576 0.969391 40.3601 0.450561C39.7627 -0.0682698 39.0552 -0.139014 38.2377 0.238315Z" fill="white"/>
</svg>
