<svg width="76" height="54" viewBox="0 0 76 54" fill="none" xmlns="http://www.w3.org/2000/svg">
<path d="M14.4954 35.1026C12.8535 39.2457 10.2583 43.3472 6.78295 47.295C5.677 48.5511 5.5366 50.3443 6.43383 51.7567C7.12475 52.8431 8.28685 53.462 9.51733 53.462C9.864 53.462 10.2168 53.4131 10.5647 53.3118C17.9304 51.1597 35.1118 43.5157 35.5733 19.0821C35.7515 9.64727 28.8509 1.54182 19.8653 0.628723C14.9128 0.133098 9.958 1.742 6.28613 5.0611C2.60938 8.38385 0.5 13.1275 0.5 18.0774C0.5 26.3355 6.3618 33.5572 14.4954 35.1026ZM9.63818 8.7708C11.9734 6.6602 14.9128 5.53592 18.0293 5.53592C18.47 5.53592 18.9143 5.5579 19.3599 5.60427C25.7771 6.2549 30.7027 12.1338 30.5733 18.9868C30.2547 35.8936 21.1006 43.5047 13.52 46.9092C15.9187 43.6646 17.8035 40.3272 19.1438 36.9446C19.6663 35.6275 19.5796 34.1553 18.907 32.9053C18.2026 31.5943 16.9465 30.6641 15.4634 30.3528C9.68945 29.1455 5.5 23.982 5.5 18.0774C5.5 14.5398 7.00878 11.1475 9.63818 8.7708Z" fill="url(#paint0_linear_378_161)"/>
<path d="M46.3598 51.7566C47.0508 52.8431 48.2129 53.462 49.4433 53.462C49.79 53.462 50.1416 53.4131 50.4907 53.3118C57.8564 51.1597 75.0366 43.5157 75.498 19.0821V19.0809C75.6738 9.64603 68.7744 1.54178 59.7876 0.628701C54.8291 0.124551 49.8828 1.74075 46.2109 5.06108C42.5342 8.38383 40.4248 13.1275 40.4248 18.0774C40.4248 26.3355 46.2866 33.5572 54.419 35.1026C52.7759 39.2493 50.1807 43.3509 46.7066 47.2962C45.6006 48.5535 45.4614 50.3455 46.3598 51.7566ZM59.0673 36.9471C59.5898 35.6299 59.5043 34.1578 58.833 32.9078C58.1274 31.5955 56.8725 30.6653 55.3881 30.3528C49.6142 29.1455 45.4248 23.982 45.4248 18.0774C45.4248 14.5386 46.9336 11.1475 49.5629 8.77078C51.8969 6.66018 54.8364 5.5359 57.9541 5.5359C58.3935 5.5359 58.8379 5.55788 59.2846 5.60425C65.7007 6.25488 70.6274 12.1338 70.498 18.9868C70.1806 35.8948 61.0254 43.5047 53.4448 46.9092C55.8423 43.667 57.7246 40.3296 59.0673 36.9471Z" fill="url(#paint1_linear_378_161)"/>
<defs>
<linearGradient id="paint0_linear_378_161" x1="6.4404" y1="47.9138" x2="41.1138" y2="33.4107" gradientUnits="userSpaceOnUse">
<stop stop-color="#F70FFF"/>
<stop offset="1" stop-color="#2C63FF"/>
</linearGradient>
<linearGradient id="paint1_linear_378_161" x1="46.3652" y1="47.9135" x2="81.039" y2="33.411" gradientUnits="userSpaceOnUse">
<stop stop-color="#F70FFF"/>
<stop offset="1" stop-color="#2C63FF"/>
</linearGradient>
</defs>
</svg>
