<svg width="44" height="33" viewBox="0 0 44 33" fill="none" xmlns="http://www.w3.org/2000/svg">
<path fill-rule="evenodd" clip-rule="evenodd" d="M36.8409 2.74572C41.6595 9.83051 44.0393 17.822 43.1497 27.0219C43.1459 27.0609 43.1257 27.0966 43.0937 27.1201C39.4446 29.7995 35.9091 31.4257 32.4233 32.5041C32.3676 32.521 32.3074 32.5006 32.2734 32.4534C31.4681 31.3329 30.7363 30.1515 30.0953 28.911C30.0585 28.8379 30.0921 28.7499 30.1678 28.7211C31.3299 28.2833 32.435 27.7585 33.4979 27.1371C33.5817 27.0881 33.587 26.9681 33.5097 26.9105C33.2841 26.743 33.0606 26.567 32.8467 26.391C32.8067 26.3585 32.7529 26.3521 32.7075 26.3739C25.8068 29.5606 18.2473 29.5606 11.2649 26.3739C11.2196 26.3537 11.1657 26.3606 11.1268 26.3926C10.9134 26.5686 10.6894 26.743 10.466 26.9105C10.3886 26.9681 10.395 27.0881 10.4793 27.1371C11.5422 27.7467 12.6473 28.2833 13.8078 28.7233C13.883 28.7521 13.9188 28.8379 13.8814 28.911C13.2542 30.1531 12.5225 31.3345 11.7022 32.455C11.6665 32.5003 11.6078 32.5211 11.5524 32.5041C8.08305 31.4257 4.54759 29.7995 0.898528 27.1201C0.868128 27.0966 0.846262 27.0593 0.843062 27.0203C0.0995962 19.0625 1.61479 11.0049 7.14598 2.74412C7.15932 2.72225 7.17958 2.70518 7.20305 2.69505C9.92465 1.44599 12.8404 0.527055 15.8878 0.00225592C15.9433 -0.0062774 15.9988 0.0193225 16.0276 0.0683891C16.4041 0.735055 16.8345 1.58999 17.1257 2.28865C20.338 1.79799 23.6004 1.79799 26.8798 2.28865C27.171 1.60492 27.5865 0.735055 27.9614 0.0683891C27.9888 0.0184589 28.0452 -0.00822014 28.1011 0.00225592C31.1502 0.528655 34.0659 1.44759 36.7854 2.69505C36.8094 2.70518 36.8291 2.72225 36.8409 2.74572ZM18.76 17.8763C18.7936 15.5238 17.0784 13.5771 14.9253 13.5771C12.7898 13.5771 11.0912 15.5067 11.0912 17.8763C11.0912 20.2454 12.8234 22.175 14.9253 22.175C17.0613 22.175 18.76 20.2454 18.76 17.8763ZM29.1029 13.5771C31.2554 13.5771 32.9706 15.5238 32.937 17.8763C32.937 20.2454 31.2554 22.175 29.1029 22.175C27.0005 22.175 25.2683 20.2454 25.2683 17.8763C25.2683 15.5067 26.9669 13.5771 29.1029 13.5771Z" fill="white"/>
</svg>
